<svg id="Layer_1" data-name="Layer 1" xmlns="http://www.w3.org/2000/svg" viewBox="0 0 1000 400"><defs><style>.cls-1{fill:#fff;}.cls-2,.cls-3{font-size:67.98px;font-weight:700;}.cls-2,.cls-3,.cls-4{fill:red;}.cls-2{font-family:Magneto-Bold, Magneto;}.cls-3{font-family:BerlinSansFBDemi-Bold, Berlin Sans FB Demi;}</style></defs><title>dmostlogopng</title><path class="cls-1" d="M196.15,152.82c2.41,7.89-9.14,7.75-4.87,18.42,17.36-14,43.72-8.11,56.65-30.89,2.56-4.5,7.15-3.83,11-4.74,19-4.45,38.31-7.86,57-13.32,12.09-3.53,25.89-.26,35.73-16.06,3.69-5.93,27.93-6.45,43.51-5.06,22.74,2,45.76.09,68.57,4.48C448.92,93.22,431.2,90.45,413,89c58.15-3.35,110,13.43,155.44,51.2,2.45-9.57-7-10.33-6.72-16.67,5.28-4.46,10.65-1.32,15.2.88,12,5.81,8.4,17.91,6.27,26-2.2,8.35-10.81,1.63-16-.14-23.17-8-45.55-19.43-75.32-15.15,14.15,12.07,30.29,12.36,42,14.78,25,5.17,43.27,18.15,59.3,34.83,9.24,9.63,19.59,12.15,32.25,15.7-3.43,2.23-8.79,4.33-8.62,5.83,1,9.23-6.92,10.13-10.46,14.6-16.25,20.51-30.35,2.09-45,1.08-8.33-.57-17-3.55-24.85-2-15.41,3.06-28,2.86-38.44-11.47-6.14-8.46-18.92-3.24-25.16-2.13-16.85,3-37.57-2.54-50.14,15.23A14,14,0,0,1,410,227.62c-28.69-2.23-52,14.76-77.95,22.1-44.16,12.48-82.39,38.36-117.47,66.68-33.41,27-72,34.39-111.47,42-4.78.93-9.74.9-14.61,1.41-6.82.72-11.8,12-18.45,6.48C60,358,46.84,352.77,40.48,340.3c-3.8-7.44-6-15.73-12.65-21.57-1.94-1.7-5.54-5.1-2.83-6.58,23.27-12.69-4.45-24.55.06-37.29,9.22-4.86,11.71,8,19.16,8.09,6.11.1,13.82,4.8,17.83-.68,3.19-4.36,3.17-12.07,2.44-18-.76-6.3-4.59-11.1-10.45-3-2.41,3.34-1.74,12.14-9.08,5.16a8.44,8.44,0,0,1,.82-13.11c12.11-9.34,19.69-23.68,33.92-30.53,7.07-3.4,13.82-6.85,16.41-15.1,1.08-3.43,3.47-7.72,7.25-5.65,19.26,10.52,29.36-4.72,38.58-15.39C156.87,169.31,176.17,161.36,196.15,152.82Z"/><path class="cls-1" d="M647.1,187c-24.38,3.23-36.27-11.83-50.71-20.43-2.21-1.31-2.46-5.23.21-7.24,3.2-2.41,6.78-.93,9.63.9C618.7,168.23,631,176.44,647.1,187Z"/><path class="cls-1" d="M644.31,53.79c14.31.81,28,5.46,34.39-10.17.34-.84,5-1.27,5.54-.46,15.18,21.91,46.52,9.09,62.53,29.24,2.82,3.55,7.41,3.46,11.55,1.21,3-1.65,6.3-4.21,9.59-1.46,25.64,21.39,51.05,43.07,76.74,64.41,11,9.13.45,17.81-.13,26.66-.06,1-3.47,2.73-5,2.44-4.9-1-6.57-5.64-6.79-9.53-.75-13.3-7.22-23.77-15-33.83-8.9-11.55-18.29-12.36-29.06-1.67,15.4,6,15.4,6,30.71,52.45-36-10.67-57.6-39.9-83.57-62.9C713.42,90.32,692.19,69.7,660.43,66,655.21,65.34,649.77,62.69,644.31,53.79Z"/><path class="cls-1" d="M907.27,162.47c-16.9-27-54.66-26-66.82-59.26,16.86,2.7,26.62,14.49,38.46,21.86,11.21,7,21.07,16.12,31.79,23.93,6.18,4.5,11.67,11.2,9.19,17.53-8.22,21,7.88,26.36,19.9,35.1,16.52,12,37.26,19,49.91,40.62-18.88.62-24.85-17.19-38.71-19.61-.48.66-1.88,1.72-1.74,2.51,1.55,8.95,12.37,19.86,3.77,26-8.29,5.9-14.25-8-21.54-12.77-10-6.47-20.09-12.43-31.28-16.9-10.19-4.05-20.91-8.75-19.56-23.67a11,11,0,0,0-11.91-12.1c-25.31,2.18-11.77-17.08-10.85-23.62,2-14,11.47-3,17.12-1.1C885.4,164.53,895.56,162.27,907.27,162.47Z"/><path class="cls-1" d="M752.3,52c-14.16,4.6-24.55-11.67-37.95-3.35C725.49,34,733.33,35,752.3,52Z"/><text class="cls-2" transform="translate(549.24 78.27) rotate(34.48)">D</text><text class="cls-3" transform="translate(604.7 116.03) rotate(34.48)">MOST</text><path class="cls-4" d="M621.82,80.28A9.74,9.74,0,0,1,628,75.54C628.23,77.84,626.19,79.44,621.82,80.28Z"/><path class="cls-4" d="M757.07,153.82c-27.31-21.13-55.66-39.71-84.26-58.22C652.63,82.54,633.2,70.73,613.21,58c-6.55-4.18-13.12-8.39-19.78-13-7.14-4.92-11.1-8.24-12.72-10.67-1.4-2.11.59-1.68,7.14,2q28.06,15.75,59.23,35.19c21.21,13.24,42.6,27.31,64.12,42.41,19.51,13.68,41.53,32.55,45.75,39.2C757.1,153.35,757,153.43,757.07,153.82Z"/><path class="cls-4" d="M739.75,133.63c16.54,11.9,28.18,21.39,37.51,30A443,443,0,0,1,739.75,133.63Z"/><path class="cls-4" d="M546.78,91.31a28.36,28.36,0,0,1,8.76,2.43c5.54,2.27,11.29,5.3,17,8.05,3.6,1.75,4.55,2.94,3.53,4.23-1.6,2-1.61,2,4.38,6a92.53,92.53,0,0,0,17,9.29c4.36,1.69,8.52,4.64,12.44,7.71a392,392,0,0,0,50.84,34,89.81,89.81,0,0,1,20.66,15.68,130.48,130.48,0,0,0,35.33,26.16c7.1,3.52,13.27,8.46,19,13.71,2,1.85,2.2,2.93,1.45,3.52s-2.54-1-3.78-1.84c-32-21.93-64.34-43.1-96.43-64.77C606.45,134.88,576.3,114,546.78,91.31Z"/></svg>