<svg id="Layer_1" data-name="Layer 1" xmlns="http://www.w3.org/2000/svg" viewBox="0 0 1000 1000"><defs><style>.cls-1{fill:#11006c;}.cls-2,.cls-3{font-size:62.67px;font-weight:700;}.cls-2,.cls-3,.cls-4{fill:red;}.cls-2{font-family:Magneto-Bold, Magneto;}.cls-3{font-family:BerlinSansFBDemi-Bold, Berlin Sans FB Demi;}</style></defs><title>dmostlogo</title><path class="cls-1" d="M213.41,481.46c2.22,7.28-8.43,7.14-4.49,17,16-12.86,40.31-7.47,52.23-28.48,2.36-4.15,6.6-3.53,10.18-4.36,17.52-4.11,35.31-7.26,52.56-12.29,11.15-3.25,23.87-.24,32.94-14.8,3.4-5.47,25.75-5.95,40.1-4.67,21,1.87,42.2.09,63.23,4.13-13.72-11.46-30.05-14-46.79-15.37C467,419.52,514.74,435,556.67,469.81c2.26-8.83-6.48-9.52-6.2-15.37,4.88-4.12,9.82-1.22,14,.81,11.08,5.35,7.75,16.51,5.79,24-2,7.7-10,1.5-14.71-.13-21.35-7.38-42-17.91-69.44-14,13.05,11.12,27.93,11.39,38.69,13.62,23.05,4.77,39.9,16.73,54.67,32.11,8.53,8.87,18.07,11.2,29.73,14.47-3.15,2-8.1,4-7.94,5.38.93,8.5-6.38,9.34-9.65,13.46-15,18.91-28,1.92-41.51,1-7.68-.52-15.69-3.27-22.92-1.84-14.2,2.82-25.84,2.64-35.43-10.58-5.67-7.8-17.44-3-23.2-2-15.53,2.77-34.64-2.34-46.22,14a12.93,12.93,0,0,1-11.77,5.61c-26.45-2.06-47.95,13.6-71.87,20.37C298,582.3,262.75,606.15,230.4,632.26,199.61,657.13,164.06,664,127.64,671c-4.41.86-9,.83-13.47,1.3-6.29.66-10.88,11-17,6-9.3-7.66-21.39-12.49-27.26-24-3.51-6.86-5.57-14.51-11.66-19.88-1.79-1.58-5.11-4.71-2.61-6.08,21.45-11.69-4.11-22.63.06-34.37,8.49-4.48,10.79,7.35,17.66,7.46,5.63.08,12.74,4.43,16.43-.63,3-4,2.93-11.13,2.26-16.63-.71-5.8-4.23-10.23-9.63-2.77-2.23,3.08-1.62,11.2-8.38,4.76a7.79,7.79,0,0,1,.76-12.09c11.16-8.6,18.15-21.83,31.26-28.14,6.52-3.14,12.74-6.31,15.14-13.93,1-3.15,3.2-7.11,6.68-5.2,17.75,9.69,27.07-4.35,35.57-14.19C177.2,496.66,195,489.33,213.41,481.46Z"/><path class="cls-1" d="M629.15,513c-22.47,3-33.44-10.91-46.75-18.83-2-1.22-2.27-4.83.2-6.69,2.94-2.21,6.24-.85,8.87.84C603,495.66,614.32,503.24,629.15,513Z"/><path class="cls-1" d="M626.58,390.16c13.19.75,25.81,5,31.7-9.38.31-.77,4.59-1.17,5.11-.42,14,20.2,42.89,8.38,57.64,27,2.61,3.27,6.84,3.19,10.65,1.11,2.8-1.52,5.81-3.87,8.84-1.35,23.64,19.73,47.07,39.71,70.76,59.39,10.13,8.41.4,16.42-.12,24.58-.06.9-3.21,2.52-4.61,2.24-4.53-.88-6.07-5.19-6.27-8.78-.68-12.26-6.65-21.92-13.79-31.19-8.2-10.64-16.86-11.4-26.79-1.54,14.2,5.51,14.2,5.51,28.32,48.36-33.17-9.84-53.11-36.78-77.06-58-20.67-18.31-40.24-37.32-69.52-40.77C636.63,400.81,631.61,398.36,626.58,390.16Z"/><path class="cls-1" d="M869,490.35c-15.58-24.9-50.39-24-61.6-54.63,15.55,2.49,24.54,13.36,35.46,20.16,10.33,6.44,19.42,14.85,29.31,22.06,5.69,4.15,10.76,10.32,8.47,16.16-7.58,19.33,7.27,24.3,18.35,32.36,15.22,11.07,34.35,17.47,46,37.45-17.41.57-22.91-15.86-35.69-18.08-.44.6-1.73,1.58-1.61,2.31,1.44,8.25,11.41,18.31,3.48,24-7.64,5.44-13.14-7.42-19.86-11.77-9.2-6-18.52-11.46-28.84-15.58-9.39-3.74-19.27-8.07-18-21.82a10.1,10.1,0,0,0-11-11.16c-23.33,2-10.85-15.74-10-21.77,1.81-12.94,10.57-2.8,15.78-1C848.84,492.25,858.21,490.17,869,490.35Z"/><path class="cls-1" d="M726.13,388.5c-13,4.23-22.63-10.77-35-3.1C701.42,371.94,708.65,372.83,726.13,388.5Z"/><text class="cls-2" transform="matrix(0.82, 0.57, -0.57, 0.82, 538.93, 412.73)">D</text><text class="cls-3" transform="matrix(0.82, 0.57, -0.57, 0.82, 590.06, 447.54)">MOST</text><path class="cls-4" d="M605.84,414.59a9,9,0,0,1,5.67-4.38C611.76,412.33,609.87,413.81,605.84,414.59Z"/><path class="cls-4" d="M730.53,482.38c-25.18-19.48-51.31-36.61-77.68-53.67-18.6-12-36.52-22.93-55-34.7-6-3.86-12.09-7.74-18.23-12-6.58-4.53-10.24-7.6-11.72-9.84-1.3-1.94.53-1.55,6.58,1.84q25.88,14.54,54.6,32.45c19.55,12.21,39.27,25.18,59.12,39.09,18,12.62,38.28,30,42.17,36.15C730.56,481.94,730.48,482,730.53,482.38Z"/><path class="cls-4" d="M714.57,463.77c15.25,11,26,19.72,34.58,27.68A408.19,408.19,0,0,1,714.57,463.77Z"/><path class="cls-4" d="M536.67,424.75a26.17,26.17,0,0,1,8.07,2.25c5.11,2.09,10.41,4.88,15.64,7.42,3.31,1.6,4.19,2.7,3.25,3.89-1.48,1.88-1.49,1.9,4,5.53a85.49,85.49,0,0,0,15.67,8.56,47.09,47.09,0,0,1,11.47,7.11,362.51,362.51,0,0,0,46.87,31.31,82.68,82.68,0,0,1,19,14.45,120,120,0,0,0,32.57,24.11A76.14,76.14,0,0,1,710.78,542c1.86,1.71,2,2.7,1.34,3.25s-2.35-.92-3.48-1.7c-29.46-20.22-59.32-39.73-88.91-59.72C591.68,464.92,563.88,445.65,536.67,424.75Z"/></svg>